<svg xmlns="http://www.w3.org/2000/svg" viewBox="0 0 164.65 146"><defs><style>.cls-1{fill:#552ba5;}.cls-2{fill:#893eff;}.cls-3{fill:#fff;}</style></defs><title>safe-screeningAsset 9</title><g id="Layer_2" data-name="Layer 2"><g id="Layer_1-2" data-name="Layer 1"><ellipse class="cls-1" cx="82.32" cy="128.83" rx="82.32" ry="16.83"/><circle class="cls-2" cx="82.44" cy="73" r="68"/><path class="cls-3" d="M82.44,5a68,68,0,1,1-68,68,68,68,0,0,1,68-68m0-5a73,73,0,1,0,73,73,73.09,73.09,0,0,0-73-73Z"/><path class="cls-3" d="M78.62,119.06C51.38,79.57,46.32,75.51,46.32,61a36,36,0,0,1,72,0c0,14.51-5,18.57-32.3,58.06a4.5,4.5,0,0,1-7.4,0ZM82.32,76a15,15,0,1,0-15-15A15,15,0,0,0,82.32,76Z"/></g></g></svg>