<svg xmlns="http://www.w3.org/2000/svg" viewBox="0 0 333.36 257.61"><defs><style>.cls-1,.cls-4{fill:#985cff;}.cls-1{opacity:0.6;}.cls-2{fill:#372842;}.cls-3{fill:#7d00b9;}.cls-5{fill:#c0a8f4;}</style></defs><title>safe-screeningAsset 5</title><g id="Layer_2" data-name="Layer 2"><g id="Layer_1-2" data-name="Layer 1"><polygon class="cls-1" points="70.1 125.97 0 166.44 157.91 257.61 333.36 156.31 175.54 65.09 70.1 125.97"/><polygon class="cls-2" points="105.23 166.59 140.41 146.28 140.41 85.26 105.23 105.56 105.23 166.59"/><polygon class="cls-3" points="70.14 146.13 105.31 166.44 105.31 105.42 70.14 85.21 70.14 146.13"/><polygon class="cls-4" points="105.27 65.09 70.1 85.4 105.27 105.71 140.45 85.4 105.27 65.09"/><polygon class="cls-2" points="192.96 136.15 228.13 115.84 228.13 54.82 192.96 75.13 192.96 136.15"/><polygon class="cls-3" points="157.87 115.69 193.04 136 193.04 74.98 157.87 54.77 157.87 115.69"/><polygon class="cls-4" points="193 34.66 157.82 54.96 193 75.27 228.18 54.96 193 34.66"/><polygon class="cls-2" points="175.41 186.75 210.59 166.44 210.59 85.26 175.41 105.56 175.41 186.75"/><polygon class="cls-3" points="140.32 166.29 175.5 186.6 175.41 105.56 140.41 85.26 140.32 166.29"/><polygon class="cls-4" points="175.41 64.95 140.24 85.26 175.41 105.56 210.59 85.26 175.41 64.95"/><polygon class="cls-2" points="245.89 166.59 245.89 125.78 263.18 115.75 263.18 156.31 245.89 166.59"/><polygon class="cls-3" points="228.18 156.26 228.13 115.84 245.89 125.78 245.89 166.59 228.18 156.26"/><polygon class="cls-4" points="245.89 105.81 263.18 115.75 245.89 125.78 228.13 115.84 245.89 105.81"/><polygon class="cls-2" points="123.05 196.98 123.05 156.16 140.34 146.14 140.34 186.7 123.05 196.98"/><polygon class="cls-3" points="105.34 186.65 105.29 146.23 123.05 156.16 123.05 196.98 105.34 186.65"/><polygon class="cls-4" points="123.05 136.2 140.34 146.14 123.05 156.16 105.29 146.23 123.05 136.2"/><polygon class="cls-2" points="70.41 166.59 70.41 125.78 87.71 115.75 87.71 156.31 70.41 166.59"/><polygon class="cls-3" points="52.7 156.26 52.66 115.84 70.41 125.78 70.41 166.59 52.7 156.26"/><polygon class="cls-4" points="70.41 105.81 87.71 115.75 70.41 125.78 52.66 115.84 70.41 105.81"/><polygon class="cls-2" points="158.14 237.35 158.14 196.54 175.43 186.51 175.43 227.07 158.14 237.35"/><polygon class="cls-3" points="140.43 227.03 140.38 186.6 158.14 196.54 158.14 237.35 140.43 227.03"/><polygon class="cls-4" points="158.14 176.57 175.43 186.51 158.14 196.54 140.38 186.6 158.14 176.57"/><path class="cls-5" d="M173.35,15.53a15.53,15.53,0,1,0-30.9,2.17h0s1.42,12.89,15.38,22.72c0,0,15.39-13.74,15.39-22.85v0A16.68,16.68,0,0,0,173.35,15.53ZM156.84,8.06a7.57,7.57,0,1,1-6.52,6.52A7.57,7.57,0,0,1,156.84,8.06Z"/></g></g></svg>