<svg xmlns="http://www.w3.org/2000/svg" xmlns:xlink="http://www.w3.org/1999/xlink" viewBox="0 0 158.22 162.08"><defs><style>.cls-1,.cls-2{stroke-miterlimit:10;}.cls-1{stroke-width:5px;fill:url(#linear-gradient);stroke:url(#linear-gradient-2);}.cls-2,.cls-3{fill:#fff;}.cls-2{stroke-width:3px;stroke:url(#linear-gradient-3);}.cls-4{fill:#893eff;}</style><linearGradient id="linear-gradient" x1="17.54" y1="61.47" x2="135.49" y2="61.47" gradientTransform="translate(-21.06 72.11) rotate(-45)" gradientUnits="userSpaceOnUse"><stop offset="0" stop-color="#6e15ff"/><stop offset="1" stop-color="#bc15ff"/></linearGradient><linearGradient id="linear-gradient-2" x1="15.04" y1="61.47" x2="137.99" y2="61.47" xlink:href="#linear-gradient"/><linearGradient id="linear-gradient-3" x1="16.04" y1="61.47" x2="136.99" y2="61.47" gradientTransform="translate(65.88 -36.1) rotate(45)" xlink:href="#linear-gradient"/></defs><title>safe-screeningAsset 4</title><g id="Layer_2" data-name="Layer 2"><g id="Layer_1-2" data-name="Layer 1"><rect class="cls-1" x="60.54" y="-15.34" width="31.95" height="153.62" rx="15.98" ry="15.98" transform="translate(65.88 -36.1) rotate(45)"/><rect class="cls-2" x="60.54" y="-15.34" width="31.95" height="153.62" rx="15.98" ry="15.98" transform="translate(-21.06 72.11) rotate(-45)"/><rect class="cls-3" x="80.38" y="44.76" width="5.71" height="19.98" transform="translate(63.09 -42.82) rotate(45)"/><rect class="cls-3" x="59.49" y="65.65" width="5.71" height="19.98" transform="translate(71.75 -21.93) rotate(45)"/><rect class="cls-3" x="38.6" y="86.55" width="5.71" height="19.98" transform="translate(80.4 -1.03) rotate(45)"/><path class="cls-3" d="M120.91,21.11,132.66,9.36a17.22,17.22,0,0,0-1.83-2.2h0a15.23,15.23,0,0,0-2.21-1.83L116.88,17.07Z"/><path class="cls-3" d="M24.55,109.4l-4.18,4.18a14.63,14.63,0,0,0,1.83,2.2h0a16,16,0,0,0,2.21,1.84l4.17-4.18Z"/><rect class="cls-3" x="102.21" y="22.93" width="5.71" height="19.98" transform="translate(54.05 -64.65) rotate(45)"/><polygon class="cls-4" points="28.16 131.82 20.1 131.82 14.4 140.69 8.7 131.82 0.69 131.82 10.07 146.44 0 161.78 8.06 161.78 14.4 151.92 20.79 161.78 28.93 161.78 18.82 146.26 28.16 131.82"/><path class="cls-4" d="M50.58,134.5q-3.15-2.67-10-2.68H30v30h6.68v-8.36h4q6.65,0,9.88-2.57t3.23-8.12Q53.73,137.18,50.58,134.5Zm-4.9,11.79c-.81.9-2.32,1.35-4.55,1.35h-4.5V137.56h3.82a8.56,8.56,0,0,1,4.86,1.1,4.19,4.19,0,0,1,1.57,3.68A5.83,5.83,0,0,1,45.68,146.29Z"/><polygon class="cls-4" points="62.55 131.82 55.86 131.82 55.86 161.78 75.32 161.78 75.32 155.82 62.55 155.82 62.55 131.82"/><path class="cls-4" d="M90.31,131.14a15.39,15.39,0,0,0-11.19,4.43,15.68,15.68,0,0,0,0,22.07,16.32,16.32,0,0,0,22.38,0,15.68,15.68,0,0,0,0-22.07A15.39,15.39,0,0,0,90.31,131.14Zm6.34,22.3a8.51,8.51,0,0,1-12.64,0,9.73,9.73,0,0,1-2.57-6.81A9.84,9.84,0,0,1,84,139.79a8.47,8.47,0,0,1,12.64,0,9.8,9.8,0,0,1,2.57,6.84A9.69,9.69,0,0,1,96.65,153.44Z"/><path class="cls-4" d="M132.9,141.76q0-5.22-3-7.58t-10-2.36H108.6v30h6.68v-9.56h4.63l6.65,9.56h8.23l-7.59-10.71Q132.9,149,132.9,141.76Zm-8.06,3.56c-.83.75-2.38,1.12-4.67,1.12h-4.89v-8.88h5a8.24,8.24,0,0,1,4.5.9q1.29.9,1.29,3.33A4.51,4.51,0,0,1,124.84,145.32Z"/><polygon class="cls-4" points="142.83 155.87 142.83 149.65 156.24 149.65 156.24 143.95 142.83 143.95 142.83 137.78 157.74 137.78 157.74 131.82 136.14 131.82 136.14 161.78 158.22 161.78 158.22 155.87 142.83 155.87"/></g></g></svg>