<svg xmlns="http://www.w3.org/2000/svg" xmlns:xlink="http://www.w3.org/1999/xlink" viewBox="0 0 572.18 122.94"><defs><style>.cls-1,.cls-2{stroke-miterlimit:10;}.cls-1{stroke-width:5px;fill:url(#linear-gradient);stroke:url(#linear-gradient-2);}.cls-2{fill:#fff;stroke-width:3px;stroke:url(#linear-gradient-3);}.cls-3{fill:#893eff;}</style><linearGradient id="linear-gradient" x1="2.5" y1="61.47" x2="120.44" y2="61.47" gradientTransform="translate(-25.46 61.47) rotate(-45)" gradientUnits="userSpaceOnUse"><stop offset="0" stop-color="#6e15ff"/><stop offset="1" stop-color="#bc15ff"/></linearGradient><linearGradient id="linear-gradient-2" x1="0" y1="61.47" x2="122.94" y2="61.47" xlink:href="#linear-gradient"/><linearGradient id="linear-gradient-3" x1="1" y1="61.47" x2="121.94" y2="61.47" gradientTransform="translate(61.47 -25.46) rotate(45)" xlink:href="#linear-gradient"/></defs><title>safe-screeningAsset 7</title><g id="Layer_2" data-name="Layer 2"><g id="Layer_1-2" data-name="Layer 1"><rect class="cls-1" x="45.5" y="-15.34" width="31.95" height="153.62" rx="15.98" ry="15.98" transform="translate(61.47 -25.46) rotate(45)"/><rect class="cls-2" x="45.5" y="-15.34" width="31.95" height="153.62" rx="15.98" ry="15.98" transform="translate(-25.46 61.47) rotate(-45)"/><polygon class="cls-3" points="211.56 20.48 189.22 20.48 173.42 45.07 157.61 20.48 135.39 20.48 161.41 61 133.49 103.54 155.83 103.54 173.42 76.21 191.12 103.54 213.7 103.54 185.66 60.52 211.56 20.48"/><path class="cls-3" d="M273.74,27.9q-8.73-7.42-27.87-7.43H216.52v83.07h18.54V80.37h11.05q18.42,0,27.39-7.13t9-22.52Q282.48,35.33,273.74,27.9ZM260.13,60.58q-3.31,3.75-12.59,3.74H235.06V36.4h10.58q9.15,0,13.48,3t4.34,10.22Q263.46,56.83,260.13,60.58Z"/><polygon class="cls-3" points="306.92 20.48 288.38 20.48 288.38 103.54 342.33 103.54 342.33 87.02 306.92 87.02 306.92 20.48"/><path class="cls-3" d="M383.9,18.57q-18.42,0-31,12.3t-12.6,30.6q0,18.3,12.6,30.6t31,12.3q18.41,0,31-12.3t12.6-30.6q0-18.3-12.6-30.6T383.9,18.57Zm17.58,61.86a23.63,23.63,0,0,1-35.05,0,27,27,0,0,1-7.13-18.9,27.16,27.16,0,0,1,7.13-19,23.49,23.49,0,0,1,35.05,0,27.16,27.16,0,0,1,7.13,19A27,27,0,0,1,401.48,80.43Z"/><path class="cls-3" d="M502,48q0-14.49-8.26-21T466.1,20.47H434.61v83.07h18.53V77H466l18.42,26.5h22.81l-21-29.71Q502,68,502,48Zm-22.35,9.87Q476.21,61,466.69,61H453.14V36.4h13.91q8.91,0,12.48,2.49t3.56,9.21Q483.09,54.82,479.64,57.91Z"/><polygon class="cls-3" points="529.52 87.14 529.52 69.91 566.71 69.91 566.71 54.1 529.52 54.1 529.52 36.99 570.87 36.99 570.87 20.48 510.98 20.48 510.98 103.54 572.18 103.54 572.18 87.14 529.52 87.14"/></g></g></svg>